<?xml version="1.0" encoding="UTF-8" standalone="no"?>
<svg
   xmlns:dc="http://purl.org/dc/elements/1.1/"
   xmlns:cc="http://creativecommons.org/ns#"
   xmlns:rdf="http://www.w3.org/1999/02/22-rdf-syntax-ns#"
   xmlns:svg="http://www.w3.org/2000/svg"
   xmlns="http://www.w3.org/2000/svg"
   xmlns:sodipodi="http://sodipodi.sourceforge.net/DTD/sodipodi-0.dtd"
   xmlns:inkscape="http://www.inkscape.org/namespaces/inkscape"
   width="83"
   height="30"
   version="1.1"
   id="svg13"
   sodipodi:docname="crypto-donate.svg"
   inkscape:version="0.92.3 (2405546, 2018-03-11)">
  <metadata
     id="metadata19">
    <rdf:RDF>
      <cc:Work
         rdf:about="">
        <dc:format>image/svg+xml</dc:format>
        <dc:type
           rdf:resource="http://purl.org/dc/dcmitype/StillImage" />
      </cc:Work>
    </rdf:RDF>
  </metadata>
  <defs
     id="defs17" />
  <sodipodi:namedview
     pagecolor="#ffffff"
     bordercolor="#666666"
     borderopacity="1"
     objecttolerance="10"
     gridtolerance="10"
     guidetolerance="10"
     inkscape:pageopacity="0"
     inkscape:pageshadow="2"
     inkscape:window-width="1276"
     inkscape:window-height="1315"
     id="namedview15"
     showgrid="false"
     inkscape:zoom="4.3855422"
     inkscape:cx="35.229396"
     inkscape:cy="15"
     inkscape:window-x="1280"
     inkscape:window-y="123"
     inkscape:window-maximized="0"
     inkscape:current-layer="svg13" />
  <rect
     id="back"
     x="1"
     y=".5"
     width="82"
     height="29"
     rx="4"
     style="fill:#1589f6;fill-opacity:1"
     fill="#f6c915" />
  <text
     font-weight="700"
     font-size="14"
     x="52"
     y="20"
     id="text11"
     style="font-weight:700;font-size:14px;font-family:'Helvetica Neue', Helvetica, Arial, sans-serif;text-anchor:middle;fill:#1a171b">Donate</text>
  <path
     inkscape:connector-curvature="0"
     d="m 20.13345,20.284272 a 8.3833649,8.2841232 0 0 1 -4.718706,2.543371 l -0.735385,3.276102 -2.144866,-0.47234 0.612819,-2.731095 A 8.352724,8.253845 0 0 1 10.990189,22.38558 L 10.37737,25.15301 8.232503,24.680669 8.9923982,21.283452 A 8.3282112,8.2296224 0 0 1 12.252597,6.6954015 l 0.759895,-3.3972171 2.144866,0.4723404 -0.612819,2.7674299 a 8.3465958,8.2477893 0 0 1 2.175509,0.4360077 l 0.612819,-2.7310973 2.144866,0.4723404 -0.735382,3.2761049 a 8.2975702,8.1993441 0 0 1 2.267431,2.3374796 7.9298788,7.8360054 0 0 1 0.925356,1.943861 l -3.450171,1.077905 a 5.1844493,5.1230761 0 0 0 -0.514768,-1.108182 4.7187069,4.6628472 0 1 0 -1.427869,6.43715 5.0373728,4.9777407 0 0 0 0.943742,-0.787234 l 2.659635,2.422259 v 0 z"
     style="fill:#1a171b;stroke-width:0.60918105;fill-opacity:1"
     id="path894" />
</svg>
